<mxfile host="drawio-plugin" agent="Mozilla/5.0 (Windows NT 10.0; Win64; x64) AppleWebKit/537.36 (KHTML, like Gecko) Chrome/122.0.0.0 Safari/537.36" modified="2024-08-28T19:27:42.781Z" version="22.1.22" etag="SqYYTQWCNfMwKYc6rr7i" type="embed">
  <diagram name="Page-1" id="GLMZQaARFyHca-dEbuJ_">
    <mxGraphModel dx="464" dy="1367" grid="1" gridSize="10" guides="1" tooltips="1" connect="1" arrows="1" fold="1" page="1" pageScale="1" pageWidth="850" pageHeight="1100" math="0" shadow="0">
      <root>
        <mxCell id="0" />
        <mxCell id="1" parent="0" />
        <mxCell id="GxLkUNRJk42CuBQXuX6_-4" value="" style="edgeStyle=orthogonalEdgeStyle;rounded=0;orthogonalLoop=1;jettySize=auto;html=1;" parent="1" target="GxLkUNRJk42CuBQXuX6_-3" edge="1">
          <mxGeometry relative="1" as="geometry">
            <mxPoint x="230" y="260" as="sourcePoint" />
          </mxGeometry>
        </mxCell>
        <mxCell id="GxLkUNRJk42CuBQXuX6_-1" value="Start" style="rounded=1;whiteSpace=wrap;html=1;" parent="1" vertex="1">
          <mxGeometry x="175" y="-50" width="120" height="60" as="geometry" />
        </mxCell>
        <mxCell id="GxLkUNRJk42CuBQXuX6_-3" value="End" style="rounded=1;whiteSpace=wrap;html=1;" parent="1" vertex="1">
          <mxGeometry x="170" y="300" width="120" height="60" as="geometry" />
        </mxCell>
        <mxCell id="MdU9B4ZPVqYp-Ki6yZfC-6" value="print(z,z,z)" style="shape=document;whiteSpace=wrap;html=1;boundedLbl=1;" parent="1" vertex="1">
          <mxGeometry x="170" y="190" width="120" height="80" as="geometry" />
        </mxCell>
        <mxCell id="MdU9B4ZPVqYp-Ki6yZfC-7" value="" style="edgeStyle=orthogonalEdgeStyle;rounded=0;orthogonalLoop=1;jettySize=auto;html=1;" parent="1" source="GxLkUNRJk42CuBQXuX6_-1" target="MdU9B4ZPVqYp-Ki6yZfC-5" edge="1">
          <mxGeometry relative="1" as="geometry">
            <mxPoint x="235" y="20" as="sourcePoint" />
            <mxPoint x="230" y="200" as="targetPoint" />
          </mxGeometry>
        </mxCell>
        <mxCell id="MdU9B4ZPVqYp-Ki6yZfC-8" value="" style="edgeStyle=orthogonalEdgeStyle;rounded=0;orthogonalLoop=1;jettySize=auto;html=1;" parent="1" source="MdU9B4ZPVqYp-Ki6yZfC-5" target="MdU9B4ZPVqYp-Ki6yZfC-6" edge="1">
          <mxGeometry relative="1" as="geometry" />
        </mxCell>
        <mxCell id="MdU9B4ZPVqYp-Ki6yZfC-5" value="x(int)&lt;div&gt;&quot;what is x?&quot;&lt;/div&gt;" style="shape=card;whiteSpace=wrap;html=1;" parent="1" vertex="1">
          <mxGeometry x="165" y="40" width="140" height="100" as="geometry" />
        </mxCell>
      </root>
    </mxGraphModel>
  </diagram>
</mxfile>
